<svg width="16" height="15" viewBox="0 0 16 15" fill="none" xmlns="http://www.w3.org/2000/svg">
<path d="M12.5 9.74414V11.9941H10.25V9.74414H12.5ZM12.5 8.25H10.25C9.83984 8.25 9.48828 8.39648 9.19531 8.68945C8.90234 8.98242 8.75586 9.33398 8.75586 9.74414V11.9941C8.75586 12.416 8.90234 12.7734 9.19531 13.0664C9.48828 13.3594 9.83984 13.5059 10.25 13.5059H12.5C12.9102 13.5059 13.2617 13.3594 13.5547 13.0664C13.8477 12.7734 13.9941 12.416 13.9941 11.9941V9.74414C13.9941 9.33398 13.8477 8.98242 13.5547 8.68945C13.2617 8.39648 12.9102 8.25 12.5 8.25ZM5.75 1.5V5.24414H2.00586V1.5H5.75ZM5.75 0.00585938H2.00586C1.58398 0.00585938 1.22656 0.152344 0.933594 0.445312C0.640625 0.738281 0.494141 1.08984 0.494141 1.5V5.24414C0.494141 5.66602 0.640625 6.02344 0.933594 6.31641C1.22656 6.60938 1.58398 6.75586 2.00586 6.75586H5.75C6.16016 6.75586 6.51172 6.60938 6.80469 6.31641C7.09766 6.02344 7.24414 5.66602 7.24414 5.24414V1.5C7.24414 1.08984 7.09766 0.738281 6.80469 0.445312C6.51172 0.152344 6.16016 0.00585938 5.75 0.00585938ZM13.9941 1.5V5.24414H10.25V1.5H13.9941ZM13.9941 0.00585938H10.25C9.83984 0.00585938 9.48828 0.152344 9.19531 0.445312C8.90234 0.738281 8.75586 1.08984 8.75586 1.5V5.24414C8.75586 5.66602 8.90234 6.02344 9.19531 6.31641C9.48828 6.60938 9.83984 6.75586 10.25 6.75586H13.9941C14.416 6.75586 14.7734 6.60938 15.0664 6.31641C15.3594 6.02344 15.5059 5.66602 15.5059 5.24414V1.5C15.5059 1.08984 15.3594 0.738281 15.0664 0.445312C14.7734 0.152344 14.416 0.00585938 13.9941 0.00585938ZM5.75 9.74414V13.5059H2.00586V9.74414H5.75ZM5.75 8.25H2.00586C1.58398 8.25 1.22656 8.39648 0.933594 8.68945C0.640625 8.98242 0.494141 9.33398 0.494141 9.74414V13.5059C0.494141 13.916 0.640625 14.2676 0.933594 14.5605C1.22656 14.8535 1.58398 15 2.00586 15H5.75C6.16016 15 6.51172 14.8535 6.80469 14.5605C7.09766 14.2676 7.24414 13.916 7.24414 13.5059V9.74414C7.24414 9.33398 7.09766 8.98242 6.80469 8.68945C6.51172 8.39648 6.16016 8.25 5.75 8.25Z" fill="#56606D"/>
</svg>
