<svg width="14" height="15" viewBox="0 0 14 15" fill="none" xmlns="http://www.w3.org/2000/svg">
<path d="M11.1309 15H2.86914C2.1543 15 1.53906 14.7422 1.02344 14.2266C0.507812 13.7109 0.25 13.0957 0.25 12.3809V2.625C0.25 1.89844 0.507812 1.2832 1.02344 0.779297C1.53906 0.263672 2.1543 0.00585938 2.86914 0.00585938H11.1309C11.8457 0.00585938 12.4609 0.263672 12.9766 0.779297C13.4922 1.2832 13.75 1.89844 13.75 2.625V12.3809C13.75 13.0957 13.4922 13.7109 12.9766 14.2266C12.4609 14.7422 11.8457 15 11.1309 15ZM2.86914 1.5C2.56445 1.5 2.30078 1.61133 2.07812 1.83398C1.85547 2.05664 1.74414 2.32031 1.74414 2.625V12.3809C1.74414 12.6855 1.85547 12.9492 2.07812 13.1719C2.30078 13.3945 2.56445 13.5059 2.86914 13.5059H11.1309C11.4355 13.5059 11.6992 13.3945 11.9219 13.1719C12.1445 12.9492 12.2559 12.6855 12.2559 12.3809V2.625C12.2559 2.32031 12.1445 2.05664 11.9219 1.83398C11.6992 1.61133 11.4355 1.5 11.1309 1.5H2.86914ZM10.5684 10.5C10.5684 10.3477 10.5098 10.2188 10.3926 10.1133C10.2871 9.99609 10.1582 9.9375 10.0059 9.9375H3.99414C3.8418 9.9375 3.70703 9.99609 3.58984 10.1133C3.48438 10.2188 3.43164 10.3477 3.43164 10.5C3.43164 10.6523 3.48438 10.7871 3.58984 10.9043C3.70703 11.0098 3.8418 11.0625 3.99414 11.0625H10.0059C10.1582 11.0625 10.2871 11.0098 10.3926 10.9043C10.5098 10.7871 10.5684 10.6523 10.5684 10.5ZM10.5684 7.49414C10.5684 7.3418 10.5098 7.21289 10.3926 7.10742C10.2871 6.99023 10.1582 6.93164 10.0059 6.93164H3.99414C3.8418 6.93164 3.70703 6.99023 3.58984 7.10742C3.48438 7.21289 3.43164 7.3418 3.43164 7.49414C3.43164 7.6582 3.48438 7.79297 3.58984 7.89844C3.70703 8.00391 3.8418 8.05664 3.99414 8.05664H10.0059C10.1582 8.05664 10.2871 8.00391 10.3926 7.89844C10.5098 7.79297 10.5684 7.6582 10.5684 7.49414ZM10.5684 4.50586C10.5684 4.3418 10.5098 4.20703 10.3926 4.10156C10.2871 3.99609 10.1582 3.94336 10.0059 3.94336H3.99414C3.8418 3.94336 3.70703 3.99609 3.58984 4.10156C3.48438 4.20703 3.43164 4.3418 3.43164 4.50586C3.43164 4.6582 3.48438 4.79297 3.58984 4.91016C3.70703 5.01562 3.8418 5.06836 3.99414 5.06836H10.0059C10.1582 5.06836 10.2871 5.01562 10.3926 4.91016C10.5098 4.79297 10.5684 4.6582 10.5684 4.50586Z" fill="#56606D"/>
</svg>
