<svg width="20" height="19" viewBox="0 0 20 19" fill="none" xmlns="http://www.w3.org/2000/svg">
<path d="M15.9512 0.673828H4.04883C3.16081 0.673828 2.40169 0.988932 1.77148 1.61914C1.14128 2.23503 0.826172 2.98698 0.826172 3.875V12.125C0.826172 13.013 1.14128 13.7721 1.77148 14.4023C2.40169 15.0182 3.16081 15.3262 4.04883 15.3262H9.07617V17.1738H6.32617C6.08268 17.1738 5.86784 17.2669 5.68164 17.4531C5.50977 17.625 5.42383 17.8327 5.42383 18.0762C5.42383 18.334 5.50977 18.556 5.68164 18.7422C5.86784 18.9141 6.08268 19 6.32617 19H13.6738C13.9173 19 14.125 18.9141 14.2969 18.7422C14.4831 18.556 14.5762 18.334 14.5762 18.0762C14.5762 17.8327 14.4831 17.625 14.2969 17.4531C14.125 17.2669 13.9173 17.1738 13.6738 17.1738H10.9238V15.3262H15.9512C16.8392 15.3262 17.5983 15.0182 18.2285 14.4023C18.8587 13.7721 19.1738 13.013 19.1738 12.125V3.875C19.1738 2.98698 18.8587 2.23503 18.2285 1.61914C17.5983 0.988932 16.8392 0.673828 15.9512 0.673828ZM17.3262 12.125C17.3262 12.4974 17.1901 12.8197 16.918 13.0918C16.6602 13.3639 16.3379 13.5 15.9512 13.5H4.04883C3.66211 13.5 3.33268 13.3639 3.06055 13.0918C2.80273 12.8197 2.67383 12.4974 2.67383 12.125V3.875C2.67383 3.5026 2.80273 3.18034 3.06055 2.9082C3.33268 2.63607 3.66211 2.5 4.04883 2.5H15.9512C16.3379 2.5 16.6602 2.63607 16.918 2.9082C17.1901 3.18034 17.3262 3.5026 17.3262 3.875V12.125ZM7.76562 3.83203C7.83724 3.90365 7.88737 3.98242 7.91602 4.06836C7.95898 4.13997 7.98047 4.22591 7.98047 4.32617C7.98047 4.42643 7.95898 4.51953 7.91602 4.60547C7.88737 4.67708 7.83724 4.7487 7.76562 4.82031L5.01562 7.57031C4.95833 7.6276 4.88672 7.67057 4.80078 7.69922C4.72917 7.72786 4.64323 7.74219 4.54297 7.74219C4.35677 7.74219 4.19206 7.67773 4.04883 7.54883C3.91992 7.41992 3.85547 7.25521 3.85547 7.05469C3.85547 6.96875 3.86979 6.88997 3.89844 6.81836C3.94141 6.73242 3.99154 6.65365 4.04883 6.58203L6.79883 3.83203C6.85612 3.77474 6.92773 3.73177 7.01367 3.70312C7.09961 3.66016 7.19271 3.63867 7.29297 3.63867C7.37891 3.63867 7.46484 3.66016 7.55078 3.70312C7.63672 3.73177 7.70833 3.77474 7.76562 3.83203Z" fill="white"/>
</svg>
