<svg width="18" height="17" viewBox="0 0 18 17" fill="none" xmlns="http://www.w3.org/2000/svg">
<path d="M9 16.6504C8.08594 16.6387 7.18359 16.5742 6.29297 16.457C5.41406 16.3516 4.55273 16.1934 3.70898 15.9824L3.86719 16C3.30469 15.8242 2.8125 15.5312 2.39062 15.1211C1.98047 14.7109 1.6875 14.2305 1.51172 13.6797L1.49414 13.6445C1.29492 12.8711 1.13672 12.0508 1.01953 11.1836C0.914062 10.3047 0.861328 9.4082 0.861328 8.49414C0.861328 7.58008 0.914062 6.68359 1.01953 5.80469C1.13672 4.92578 1.30664 4.06445 1.5293 3.2207L1.49414 3.36133C1.68164 2.79883 1.98047 2.3125 2.39062 1.90234C2.80078 1.48047 3.28125 1.18164 3.83203 1.00586L3.84961 0.988281H3.86719C4.62891 0.789062 5.44336 0.636719 6.31055 0.53125C7.18945 0.414063 8.08594 0.355469 9 0.355469C9.91406 0.355469 10.8105 0.414063 11.6895 0.53125C12.5801 0.648437 13.4473 0.8125 14.291 1.02344L14.1328 0.988281C14.6953 1.17578 15.1816 1.47461 15.5918 1.88477C16.0137 2.29492 16.3125 2.77539 16.4883 3.32617L16.5059 3.34375C16.7051 4.11719 16.8574 4.94336 16.9629 5.82227C17.0801 6.68945 17.1387 7.58008 17.1387 8.49414C17.1387 9.4082 17.0801 10.3105 16.9629 11.2012C16.8574 12.0801 16.6934 12.9414 16.4707 13.7852L16.5059 13.6445C16.3184 14.207 16.0195 14.6934 15.6094 15.1035C15.1992 15.5137 14.7188 15.8125 14.168 16H14.1504C13.377 16.1992 12.5508 16.3516 11.6719 16.457C10.8047 16.5742 9.91406 16.6328 9 16.6328V16.6504ZM4.23633 2.44727C3.93164 2.56445 3.66797 2.73438 3.44531 2.95703C3.22266 3.16797 3.05859 3.41992 2.95312 3.71289V3.73047C2.76562 4.44531 2.61914 5.20703 2.51367 6.01562C2.4082 6.82422 2.35547 7.65039 2.35547 8.49414C2.35547 9.34961 2.4082 10.1875 2.51367 11.0078C2.61914 11.8281 2.77734 12.6309 2.98828 13.416L2.95312 13.2754C3.05859 13.5684 3.22266 13.8262 3.44531 14.0488C3.66797 14.2715 3.92578 14.4355 4.21875 14.541L4.23633 14.5586C4.95117 14.7461 5.71289 14.8926 6.52148 14.998C7.33008 15.0918 8.15625 15.1387 9 15.1387C9.84375 15.1387 10.6758 15.0859 11.4961 14.9805C12.3281 14.875 13.1367 14.7227 13.9219 14.5234L13.7812 14.541C14.0742 14.4355 14.332 14.2715 14.5547 14.0488C14.7773 13.8262 14.9414 13.5684 15.0469 13.2754C15.2344 12.5488 15.3809 11.7871 15.4863 10.9902C15.5918 10.1816 15.6445 9.34961 15.6445 8.49414C15.6445 7.65039 15.5918 6.81836 15.4863 5.99805C15.3809 5.17773 15.2227 4.375 15.0117 3.58984L15.0469 3.73047C14.9414 3.42578 14.7773 3.16797 14.5547 2.95703C14.332 2.73438 14.0742 2.56445 13.7812 2.44727H13.7637C13.0488 2.25977 12.2871 2.11328 11.4785 2.00781C10.6699 1.90234 9.84375 1.84961 9 1.84961C8.15625 1.84961 7.32422 1.90234 6.50391 2.00781C5.68359 2.11328 4.88086 2.27148 4.0957 2.48242L4.23633 2.44727ZM9.52734 10.3398L12.1465 7.7207C12.2168 7.65039 12.2695 7.57422 12.3047 7.49219C12.3398 7.39844 12.3574 7.29883 12.3574 7.19336C12.3574 6.99414 12.2812 6.82422 12.1289 6.68359C11.9883 6.53125 11.8184 6.45508 11.6191 6.45508C11.5137 6.45508 11.4141 6.47266 11.3203 6.50781C11.2383 6.54297 11.1621 6.5957 11.0918 6.66602L9 8.75781L6.9082 6.66602C6.83789 6.58398 6.75586 6.52539 6.66211 6.49023C6.56836 6.44336 6.46875 6.41992 6.36328 6.41992C6.15234 6.41992 5.9707 6.49609 5.81836 6.64844C5.67773 6.78906 5.60742 6.96484 5.60742 7.17578C5.60742 7.28125 5.625 7.38086 5.66016 7.47461C5.70703 7.56836 5.76562 7.65039 5.83594 7.7207L8.47266 10.3398C8.54297 10.4102 8.61914 10.4688 8.70117 10.5156C8.79492 10.5508 8.89453 10.5684 9 10.5684C9.10547 10.5684 9.19922 10.5508 9.28125 10.5156C9.375 10.4688 9.45703 10.4102 9.52734 10.3398Z" fill="#56606D"/>
</svg>
