<svg width="18" height="17" viewBox="0 0 18 17" fill="none" xmlns="http://www.w3.org/2000/svg">
<path d="M6.8418 16.9941C6.80273 16.9941 6.77018 16.9941 6.74414 16.9941C6.7181 16.9941 6.69206 16.9941 6.66602 16.9941C6.37956 16.9811 6.11263 16.929 5.86523 16.8379C5.61784 16.7467 5.38997 16.623 5.18164 16.4668L3.63867 15.334C3.32617 15.0866 3.07878 14.7871 2.89648 14.4355C2.71419 14.071 2.62305 13.6803 2.62305 13.2637C2.62305 12.9772 2.66211 12.7103 2.74023 12.4629C2.83138 12.2025 2.94857 11.9681 3.0918 11.7598C3.13086 11.7077 3.1569 11.6491 3.16992 11.584C3.19596 11.5189 3.20898 11.4473 3.20898 11.3691C3.20898 11.3301 3.20247 11.291 3.18945 11.252C3.18945 11.2129 3.18294 11.1738 3.16992 11.1348L3.11133 11.0176C3.09831 10.9395 3.06576 10.8678 3.01367 10.8027C2.97461 10.7376 2.92904 10.6855 2.87695 10.6465H2.85742C2.83138 10.6465 2.79883 10.64 2.75977 10.627C2.73372 10.6139 2.70117 10.6074 2.66211 10.6074H2.68164C2.16081 10.4251 1.73112 10.1126 1.39258 9.66992C1.06706 9.21419 0.904297 8.70638 0.904297 8.14648C0.904297 8.00326 0.917318 7.86654 0.943359 7.73633C0.969401 7.5931 1.00195 7.45638 1.04102 7.32617V7.3457L1.64648 5.41211C1.78971 4.87826 2.07617 4.44206 2.50586 4.10352C2.94857 3.76497 3.45638 3.5957 4.0293 3.5957C4.17253 3.5957 4.30924 3.60872 4.43945 3.63477C4.56966 3.64779 4.69987 3.68034 4.83008 3.73242L4.81055 3.71289C4.84961 3.72591 4.88216 3.73893 4.9082 3.75195C4.93424 3.75195 4.9668 3.75195 5.00586 3.75195C5.07096 3.75195 5.13607 3.74544 5.20117 3.73242C5.26628 3.70638 5.32487 3.67383 5.37695 3.63477L5.47461 3.55664C5.53971 3.50456 5.5918 3.43945 5.63086 3.36133C5.66992 3.27018 5.68945 3.17904 5.68945 3.08789V2.91211C5.68945 2.19596 5.93685 1.59049 6.43164 1.0957C6.92643 0.587891 7.52539 0.333984 8.22852 0.333984H10.1621C10.5137 0.333984 10.8392 0.399089 11.1387 0.529297C11.4512 0.659505 11.7181 0.841797 11.9395 1.07617C12.1738 1.31055 12.3561 1.58398 12.4863 1.89648C12.6296 2.20898 12.7012 2.54102 12.7012 2.89258C12.7012 2.9056 12.7012 2.91862 12.7012 2.93164V3.12695C12.7012 3.12695 12.7012 3.13346 12.7012 3.14648C12.7012 3.22461 12.7142 3.30273 12.7402 3.38086C12.7793 3.44596 12.8249 3.49805 12.877 3.53711H12.8965L12.9551 3.5957C12.9941 3.62174 13.0397 3.64779 13.0918 3.67383C13.1439 3.68685 13.196 3.69336 13.248 3.69336C13.2741 3.69336 13.3001 3.69336 13.3262 3.69336C13.3522 3.68034 13.3783 3.67383 13.4043 3.67383L13.6582 3.57617C13.7754 3.53711 13.8991 3.51107 14.0293 3.49805C14.1595 3.47201 14.2962 3.45898 14.4395 3.45898C14.9993 3.45898 15.4941 3.62174 15.9238 3.94727C16.3665 4.25977 16.6725 4.66992 16.8418 5.17773V5.19727C16.8418 5.19727 16.8418 5.21029 16.8418 5.23633C16.8548 5.26237 16.8613 5.27539 16.8613 5.27539L17.4668 7.15039C17.4928 7.26758 17.5189 7.39128 17.5449 7.52148C17.571 7.65169 17.584 7.78841 17.584 7.93164C17.584 8.49154 17.4212 8.99284 17.0957 9.43555C16.7702 9.87825 16.36 10.1908 15.8652 10.373H15.8457L15.6895 10.4316C15.5983 10.4577 15.5137 10.5098 15.4355 10.5879C15.3704 10.653 15.3249 10.7311 15.2988 10.8223V10.8418C15.2858 10.8678 15.2793 10.9004 15.2793 10.9395C15.2793 10.9655 15.2793 10.9915 15.2793 11.0176C15.2793 11.0827 15.2858 11.1478 15.2988 11.2129C15.3249 11.278 15.3509 11.3366 15.377 11.3887L15.5723 11.6621C15.7155 11.8704 15.8262 12.0983 15.9043 12.3457C15.9824 12.5931 16.0215 12.86 16.0215 13.1465C16.0215 13.5632 15.9303 13.9538 15.748 14.3184C15.5658 14.6699 15.3249 14.9629 15.0254 15.1973L15.0059 15.2168L13.502 16.3691C13.2936 16.5384 13.0592 16.6686 12.7988 16.7598C12.5384 16.8509 12.265 16.8965 11.9785 16.8965C11.5749 16.8965 11.1973 16.8053 10.8457 16.623C10.5072 16.4408 10.2207 16.2064 9.98633 15.9199V15.9004L9.81055 15.666C9.75846 15.6009 9.69336 15.5488 9.61523 15.5098C9.55013 15.4577 9.472 15.4316 9.38086 15.4316C9.30273 15.4316 9.22461 15.4577 9.14648 15.5098C9.08138 15.5488 9.02279 15.5944 8.9707 15.6465V15.666L8.81445 15.9004C8.61914 16.1868 8.37826 16.4212 8.0918 16.6035C7.80534 16.7858 7.49284 16.9095 7.1543 16.9746H7.13477C7.0957 16.9876 7.05013 16.9941 6.99805 16.9941C6.94596 16.9941 6.89388 16.9941 6.8418 16.9941ZM3.0918 8.98633C3.14388 8.98633 3.18945 8.99284 3.22852 9.00586C3.2806 9.00586 3.32617 9.01237 3.36523 9.02539H3.3457C3.68424 9.1556 3.9707 9.35091 4.20508 9.61133C4.43945 9.85872 4.60221 10.1517 4.69336 10.4902V10.5098L4.73242 10.5488C4.77148 10.679 4.80404 10.8158 4.83008 10.959C4.85612 11.0892 4.86914 11.2259 4.86914 11.3691C4.86914 11.6165 4.83008 11.8574 4.75195 12.0918C4.68685 12.3132 4.58919 12.5215 4.45898 12.7168C4.4069 12.7819 4.36133 12.8665 4.32227 12.9707C4.29622 13.0618 4.2832 13.153 4.2832 13.2441C4.2832 13.4004 4.31576 13.5436 4.38086 13.6738C4.44596 13.804 4.53711 13.9147 4.6543 14.0059L6.19727 15.1387C6.26237 15.1908 6.34049 15.2363 6.43164 15.2754C6.52279 15.3014 6.61393 15.3145 6.70508 15.3145C6.7181 15.3145 6.73112 15.321 6.74414 15.334C6.75716 15.334 6.77018 15.334 6.7832 15.334C6.79622 15.334 6.80924 15.334 6.82227 15.334C6.83529 15.334 6.8418 15.334 6.8418 15.334C6.85482 15.334 6.86784 15.334 6.88086 15.334C6.89388 15.334 6.9069 15.334 6.91992 15.334C7.02409 15.3079 7.11523 15.2624 7.19336 15.1973C7.28451 15.1322 7.36263 15.054 7.42773 14.9629L7.60352 14.709C7.81185 14.4225 8.06576 14.1947 8.36523 14.0254C8.67773 13.8561 9.02279 13.7715 9.40039 13.7715C9.76497 13.7715 10.1035 13.8626 10.416 14.0449C10.7285 14.2142 10.9824 14.4355 11.1777 14.709V14.7285L11.2559 14.8457C11.334 14.9368 11.4186 15.0215 11.5098 15.0996C11.6139 15.1647 11.7311 15.2038 11.8613 15.2168C11.8743 15.2168 11.8874 15.2168 11.9004 15.2168C11.9264 15.2168 11.9525 15.2168 11.9785 15.2168C12.0697 15.2168 12.1608 15.2038 12.252 15.1777C12.3431 15.1517 12.4212 15.1061 12.4863 15.041V15.0605L13.9902 13.8887C14.1074 13.7975 14.1986 13.6868 14.2637 13.5566C14.3288 13.4264 14.3613 13.2897 14.3613 13.1465C14.3613 13.0423 14.3418 12.9447 14.3027 12.8535C14.2767 12.7624 14.2376 12.6777 14.1855 12.5996L13.9902 12.3066C13.873 12.1243 13.7754 11.929 13.6973 11.7207C13.6322 11.4993 13.5996 11.265 13.5996 11.0176C13.5996 10.9004 13.6061 10.7897 13.6191 10.6855C13.6452 10.5684 13.6712 10.4577 13.6973 10.3535V10.373C13.8014 10.0085 13.9772 9.69596 14.2246 9.43555C14.485 9.16211 14.791 8.97331 15.1426 8.86914L15.1621 8.84961L15.2988 8.81055C15.4811 8.74544 15.6243 8.63477 15.7285 8.47852C15.8457 8.30924 15.9043 8.12695 15.9043 7.93164C15.9043 7.87956 15.8978 7.83398 15.8848 7.79492C15.8848 7.74284 15.8783 7.69076 15.8652 7.63867L15.2793 5.76367C15.2402 5.64648 15.1816 5.54232 15.1035 5.45117C15.0254 5.34701 14.9342 5.26888 14.8301 5.2168C14.778 5.19076 14.7194 5.17122 14.6543 5.1582C14.5892 5.13216 14.5176 5.11914 14.4395 5.11914C14.4004 5.11914 14.3548 5.12565 14.3027 5.13867C14.2507 5.13867 14.2051 5.15169 14.166 5.17773V5.1582L13.9121 5.25586C13.8079 5.2819 13.6973 5.30794 13.5801 5.33398C13.4759 5.34701 13.3652 5.35352 13.248 5.35352C13.0007 5.35352 12.7663 5.32096 12.5449 5.25586C12.3366 5.17773 12.1413 5.06706 11.959 4.92383L11.8809 4.88477C11.6204 4.67643 11.4121 4.42253 11.2559 4.12305C11.0996 3.82357 11.0215 3.49805 11.0215 3.14648C11.0215 3.13346 11.0215 3.12044 11.0215 3.10742V2.91211C11.0215 2.7819 10.9954 2.6582 10.9434 2.54102C10.9043 2.42383 10.8457 2.32617 10.7676 2.24805C10.6895 2.16992 10.5983 2.11133 10.4941 2.07227C10.39 2.02018 10.2728 1.99414 10.1426 1.99414H8.24805C8.00065 1.99414 7.78581 2.08529 7.60352 2.26758C7.43424 2.43685 7.34961 2.64518 7.34961 2.89258C7.34961 2.89258 7.34961 2.89909 7.34961 2.91211V3.08789C7.34961 3.45247 7.27148 3.79102 7.11523 4.10352C6.97201 4.40299 6.77018 4.6569 6.50977 4.86523L6.39258 4.96289C6.19727 5.10612 5.98242 5.2168 5.74805 5.29492C5.51367 5.37305 5.26628 5.41211 5.00586 5.41211C4.87565 5.41211 4.74544 5.4056 4.61523 5.39258C4.49805 5.36654 4.38086 5.33398 4.26367 5.29492H4.2832C4.24414 5.2819 4.19857 5.27539 4.14648 5.27539C4.10742 5.26237 4.06836 5.25586 4.0293 5.25586C3.96419 5.25586 3.89909 5.26237 3.83398 5.27539C3.76888 5.28841 3.71029 5.30794 3.6582 5.33398C3.56706 5.38607 3.48242 5.45768 3.4043 5.54883C3.33919 5.63997 3.28711 5.74414 3.24805 5.86133L2.62305 7.85352C2.61003 7.9056 2.59701 7.95768 2.58398 8.00977C2.58398 8.04883 2.58398 8.0944 2.58398 8.14648C2.58398 8.32878 2.62956 8.49805 2.7207 8.6543C2.81185 8.79753 2.93555 8.9082 3.0918 8.98633ZM9.24414 11.9941C8.31966 11.9941 7.5319 11.6686 6.88086 11.0176C6.22982 10.3665 5.9043 9.57878 5.9043 8.6543C5.9043 7.74284 6.22982 6.96159 6.88086 6.31055C7.5319 5.65951 8.31966 5.33398 9.24414 5.33398C10.1686 5.33398 10.9564 5.65951 11.6074 6.31055C12.2585 6.96159 12.584 7.74284 12.584 8.6543C12.584 9.57878 12.2585 10.3665 11.6074 11.0176C10.9564 11.6686 10.1686 11.9941 9.24414 11.9941ZM9.24414 6.99414C8.78841 6.99414 8.39779 7.1569 8.07227 7.48242C7.74674 7.80794 7.58398 8.19857 7.58398 8.6543C7.58398 9.12305 7.74674 9.52018 8.07227 9.8457C8.39779 10.1712 8.78841 10.334 9.24414 10.334C9.69987 10.334 10.0905 10.1712 10.416 9.8457C10.7415 9.52018 10.9043 9.12305 10.9043 8.6543C10.9043 8.19857 10.7415 7.80794 10.416 7.48242C10.0905 7.1569 9.69987 6.99414 9.24414 6.99414Z" fill="#56606D"/>
</svg>
