<svg width="16" height="16" viewBox="0 0 16 16" fill="none" xmlns="http://www.w3.org/2000/svg">
<path d="M13.4102 0.160156H2.58984C2.01693 0.160156 1.52214 0.36849 1.10547 0.785156C0.701823 1.1888 0.5 1.67708 0.5 2.25V13.0898C0.5 13.6628 0.701823 14.151 1.10547 14.5547C1.52214 14.9583 2.01693 15.1602 2.58984 15.1602H13.4102C13.9831 15.1602 14.4714 14.9583 14.875 14.5547C15.2917 14.151 15.5 13.6628 15.5 13.0898V2.25C15.5 1.67708 15.2917 1.1888 14.875 0.785156C14.4714 0.36849 13.9831 0.160156 13.4102 0.160156ZM2.16016 2.25C2.16016 2.13281 2.19922 2.03516 2.27734 1.95703C2.36849 1.87891 2.47266 1.83984 2.58984 1.83984H13.4102C13.5273 1.83984 13.625 1.87891 13.7031 1.95703C13.7943 2.03516 13.8398 2.13281 13.8398 2.25V3.5H2.16016V2.25ZM13.8398 13.0898C13.8398 13.194 13.7943 13.2917 13.7031 13.3828C13.625 13.4609 13.5273 13.5 13.4102 13.5H2.58984C2.47266 13.5 2.36849 13.4609 2.27734 13.3828C2.19922 13.2917 2.16016 13.194 2.16016 13.0898V5.16016H13.8398V13.0898Z" fill="#56606D"/>
</svg>
