<svg width="23" height="22" viewBox="0 0 23 22" fill="none" xmlns="http://www.w3.org/2000/svg">
<g opacity="0.7">
<path d="M20.97 9.44678L18.2903 19.2319C18.0012 20.2869 16.8815 20.9043 15.7959 20.608L2.22618 16.8974C2.13863 16.8736 2.05317 16.8414 1.9771 16.811C1.08818 16.4491 0.570175 15.5212 0.747891 14.6C0.75259 14.5468 0.766863 14.4955 0.781136 14.4442L3.46096 4.65996C3.74903 3.6049 4.86876 2.98668 5.95437 3.28388L19.5241 6.99355C20.6107 7.28988 21.2589 8.39155 20.97 9.44678Z" fill="#F5F6FA"/>
<path d="M23 2.15624V13.1771C23 14.3654 22.0366 15.3334 20.8538 15.3334H6.0687C5.97334 15.3334 5.87798 15.3237 5.79204 15.3141C4.79054 15.1896 4.00842 14.3654 3.93209 13.3496C3.92249 13.2921 3.92249 13.2345 3.92249 13.1771V2.15624C3.92249 0.96792 4.88591 0 6.0687 0H20.8538C22.0366 0 23 0.96792 23 2.15624Z" fill="white"/>
<path d="M9.98455 4.81396C9.98455 5.60166 9.3459 6.24032 8.5582 6.24032C7.77032 6.24032 7.13184 5.60166 7.13184 4.81396C7.13184 4.02626 7.77032 3.3876 8.5582 3.3876C9.3459 3.3876 9.98455 4.02626 9.98455 4.81396Z" fill="#FFC107"/>
<path d="M21.5736 10.6444V13.0502C21.5736 14.1114 20.8353 14.9768 19.9284 14.9768H8.59141C8.51806 14.9768 8.44558 14.9682 8.37974 14.9597L15.9128 6.14187C16.4098 5.55997 17.2291 5.55997 17.727 6.14187L21.5736 10.6444Z" fill="#DFF6FF"/>
<path d="M15.5115 14.3801L6.36686 14.6202C6.29704 14.6202 6.22827 14.6135 6.16615 14.6058C5.43785 14.5155 4.86931 13.916 4.81384 13.1772L9.06272 9.6265C9.53378 9.15296 10.3107 9.15296 10.782 9.6265L15.5115 14.3801Z" fill="#DFF6FF"/>
<path d="M16.9937 21.0388C16.8123 21.0388 16.6271 21.016 16.4436 20.9684L1.59866 17.0272C0.453491 16.714 -0.229043 15.5396 0.0704773 14.4052L1.70237 8.2009C1.80221 7.82012 2.19489 7.58887 2.58072 7.69081C2.96479 7.7898 3.19611 8.17998 3.09539 8.56163L1.46332 14.7669C1.3626 15.1495 1.59199 15.5444 1.97605 15.6491L16.8123 19.5884C17.1934 19.6883 17.587 19.4636 17.6868 19.0877L18.1936 17.0605C18.2897 16.678 18.6794 16.4457 19.0652 16.5391C19.4512 16.6342 19.6864 17.0206 19.5913 17.4031L19.0826 19.4399C18.8262 20.404 17.9508 21.0388 16.9937 21.0388Z" fill="#36BEF7"/>
<path d="M20.8538 15.3334H6.0687C4.88504 15.3334 3.92249 14.3663 3.92249 13.1771V2.15624C3.92249 0.967043 4.88504 0 6.0687 0H20.8538C22.0375 0 23 0.967043 23 2.15624V13.1771C23 14.3663 22.0375 15.3334 20.8538 15.3334ZM6.0687 1.43749C5.6738 1.43749 5.3533 1.75949 5.3533 2.15624V13.1771C5.3533 13.5739 5.6738 13.8959 6.0687 13.8959H20.8538C21.2487 13.8959 21.5692 13.5739 21.5692 13.1771V2.15624C21.5692 1.75949 21.2487 1.43749 20.8538 1.43749H6.0687Z" fill="#36BEF7"/>
<path d="M8.64745 6.77518C7.61495 6.77518 6.77527 5.89556 6.77527 4.81394C6.77527 3.73232 7.61495 2.85269 8.64745 2.85269C9.67995 2.85269 10.5195 3.73232 10.5195 4.81394C10.5195 5.89556 9.67995 6.77518 8.64745 6.77518ZM8.64745 4.32358C8.38898 4.32358 8.17936 4.54335 8.17936 4.81394C8.17936 5.08452 8.38898 5.30429 8.64745 5.30429C8.90575 5.30429 9.11537 5.08452 9.11537 4.81394C9.11537 4.54335 8.90575 4.32358 8.64745 4.32358Z" fill="#36BEF7"/>
<path d="M4.63832 14.2636C4.45508 14.2636 4.27166 14.195 4.1323 14.0571C3.85255 13.782 3.85255 13.3358 4.1323 13.0607L8.44846 8.81637C9.1017 8.174 10.1644 8.174 10.8166 8.81637L11.9711 9.95169L15.5176 5.76547C15.8346 5.39167 16.2997 5.17571 16.7935 5.17296C17.3243 5.1439 17.7541 5.38135 18.0739 5.75051L22.8275 11.2043C23.0853 11.4992 23.0499 11.9443 22.7501 12.1977C22.4493 12.4514 21.9977 12.4166 21.7398 12.1217L16.9844 6.66609C16.9213 6.59181 16.844 6.59559 16.801 6.58235C16.7601 6.58235 16.6807 6.59456 16.6178 6.66781L12.569 11.4476C12.4399 11.5996 12.252 11.6917 12.0514 11.7001C11.847 11.7113 11.6541 11.6343 11.5127 11.4945L9.80354 9.81362C9.6822 9.6943 9.58201 9.6943 9.46066 9.81362L5.14451 14.0571C5.00498 14.195 4.82174 14.2636 4.63832 14.2636Z" fill="#36BEF7"/>
</g>
</svg>
