<svg width="15" height="20" viewBox="0 0 15 20" fill="none" xmlns="http://www.w3.org/2000/svg">
<path d="M7.5 5.625C7.5 5.625 7.49251 5.625 7.47754 5.625C7.28288 5.625 7.10319 5.57259 6.93848 5.46777C6.78874 5.34798 6.68392 5.20573 6.62402 5.04102C6.59408 4.98112 6.57161 4.92122 6.55664 4.86133C6.54167 4.80143 6.53418 4.74154 6.53418 4.68164C6.53418 4.68164 6.53418 4.67415 6.53418 4.65918C6.53418 4.62923 6.53418 4.59928 6.53418 4.56934C6.54915 4.53939 6.55664 4.50195 6.55664 4.45703V4.47949C6.57161 4.44954 6.5791 4.4196 6.5791 4.38965C6.59408 4.3597 6.60905 4.32975 6.62402 4.2998C6.639 4.26986 6.64648 4.23991 6.64648 4.20996C6.66146 4.18001 6.68392 4.15007 6.71387 4.12012C6.72884 4.10514 6.74382 4.08268 6.75879 4.05273C6.77376 4.02279 6.79622 4.00033 6.82617 3.98535C6.90104 3.89551 6.99837 3.82812 7.11816 3.7832C7.23796 3.73828 7.36523 3.71582 7.5 3.71582C7.52995 3.71582 7.5599 3.71582 7.58984 3.71582C7.61979 3.71582 7.64974 3.72331 7.67969 3.73828C7.70964 3.73828 7.73958 3.74577 7.76953 3.76074C7.81445 3.76074 7.8444 3.76823 7.85938 3.7832C7.88932 3.79818 7.91927 3.81315 7.94922 3.82812C7.97917 3.8431 8.00911 3.85807 8.03906 3.87305C8.06901 3.88802 8.09147 3.91048 8.10645 3.94043C8.13639 3.9554 8.15885 3.97038 8.17383 3.98535C8.20378 4.00033 8.22624 4.02279 8.24121 4.05273C8.25618 4.08268 8.27116 4.10514 8.28613 4.12012C8.31608 4.15007 8.33105 4.18001 8.33105 4.20996C8.34603 4.23991 8.361 4.26986 8.37598 4.2998C8.39095 4.32975 8.39844 4.3597 8.39844 4.38965C8.41341 4.4196 8.42839 4.44954 8.44336 4.47949C8.44336 4.50944 8.44336 4.53939 8.44336 4.56934C8.45833 4.59928 8.46582 4.62923 8.46582 4.65918C8.46582 4.73405 8.45833 4.80143 8.44336 4.86133C8.42839 4.92122 8.40592 4.98112 8.37598 5.04102C8.361 5.10091 8.33105 5.16081 8.28613 5.2207C8.25618 5.26562 8.21875 5.31055 8.17383 5.35547C8.08398 5.43034 7.97917 5.49772 7.85938 5.55762C7.75456 5.60254 7.63477 5.625 7.5 5.625ZM9.40918 16.1592C9.40918 15.9046 9.31185 15.6875 9.11719 15.5078C8.9375 15.3132 8.72038 15.2158 8.46582 15.2158H6.53418C6.27962 15.2158 6.05501 15.3132 5.86035 15.5078C5.68066 15.6875 5.59082 15.9046 5.59082 16.1592C5.59082 16.4287 5.68066 16.6608 5.86035 16.8555C6.05501 17.0352 6.27962 17.125 6.53418 17.125H8.46582C8.72038 17.125 8.9375 17.0352 9.11719 16.8555C9.31185 16.6608 9.40918 16.4287 9.40918 16.1592ZM14.2158 16.6533V4.1875C14.2158 3.25911 13.8864 2.47298 13.2275 1.8291C12.5687 1.17025 11.7751 0.84082 10.8467 0.84082H4.15332C3.22493 0.84082 2.43132 1.17025 1.77246 1.8291C1.11361 2.47298 0.78418 3.25911 0.78418 4.1875V16.6533C0.78418 17.5667 1.11361 18.3529 1.77246 19.0117C2.43132 19.6706 3.22493 20 4.15332 20H10.8467C11.7751 20 12.5687 19.6706 13.2275 19.0117C13.8864 18.3529 14.2158 17.5667 14.2158 16.6533ZM10.8467 2.75C11.251 2.75 11.5879 2.89225 11.8574 3.17676C12.1419 3.46126 12.2842 3.79818 12.2842 4.1875V16.6533C12.2842 17.0426 12.1419 17.3796 11.8574 17.6641C11.5879 17.9486 11.251 18.0908 10.8467 18.0908H4.15332C3.74902 18.0908 3.40462 17.9486 3.12012 17.6641C2.85059 17.3796 2.71582 17.0426 2.71582 16.6533V4.1875C2.71582 3.79818 2.85059 3.46126 3.12012 3.17676C3.40462 2.89225 3.74902 2.75 4.15332 2.75H10.8467Z" fill="#56606D"/>
</svg>
