<svg width="16" height="19" viewBox="0 0 16 19" fill="none" xmlns="http://www.w3.org/2000/svg">
<path d="M12.125 19H3.875C2.98698 19 2.22786 18.6849 1.59766 18.0547C0.981771 17.4245 0.673828 16.6725 0.673828 15.7988V3.875C0.673828 2.98698 0.981771 2.23503 1.59766 1.61914C2.22786 0.988932 2.98698 0.673828 3.875 0.673828H12.125C13.013 0.673828 13.765 0.988932 14.3809 1.61914C15.0111 2.23503 15.3262 2.98698 15.3262 3.875V15.7988C15.3262 16.6725 15.0111 17.4245 14.3809 18.0547C13.765 18.6849 13.013 19 12.125 19ZM3.875 2.5C3.5026 2.5 3.18034 2.63607 2.9082 2.9082C2.63607 3.18034 2.5 3.5026 2.5 3.875V15.7988C2.5 16.1712 2.63607 16.4935 2.9082 16.7656C3.18034 17.0378 3.5026 17.1738 3.875 17.1738H12.125C12.4974 17.1738 12.8197 17.0378 13.0918 16.7656C13.3639 16.4935 13.5 16.1712 13.5 15.7988V3.875C13.5 3.5026 13.3639 3.18034 13.0918 2.9082C12.8197 2.63607 12.4974 2.5 12.125 2.5H3.875ZM8.64453 15.9922C8.73047 15.9062 8.79492 15.806 8.83789 15.6914C8.89518 15.5768 8.92383 15.4622 8.92383 15.3477C8.92383 15.3333 8.92383 15.3262 8.92383 15.3262C8.92383 15.0827 8.83073 14.875 8.64453 14.7031C8.47266 14.5169 8.25781 14.4238 8 14.4238C7.74219 14.4238 7.52018 14.5169 7.33398 14.7031C7.16211 14.875 7.07617 15.0827 7.07617 15.3262C7.07617 15.584 7.16211 15.806 7.33398 15.9922C7.52018 16.1641 7.74219 16.25 8 16.25C8.12891 16.25 8.24349 16.2285 8.34375 16.1855C8.45833 16.1283 8.55859 16.0638 8.64453 15.9922Z" fill="#56606D"/>
</svg>
