<svg width="16" height="11" viewBox="0 0 16 11" fill="none" xmlns="http://www.w3.org/2000/svg">
<path d="M14.6719 6H1.32812C1.15104 6 0.994792 5.9375 0.859375 5.8125C0.734375 5.67708 0.671875 5.51562 0.671875 5.32812C0.671875 5.15104 0.734375 5 0.859375 4.875C0.994792 4.73958 1.15104 4.67188 1.32812 4.67188H14.6719C14.849 4.67188 15 4.73958 15.125 4.875C15.2604 5 15.3281 5.15104 15.3281 5.32812C15.3281 5.51562 15.2604 5.67708 15.125 5.8125C15 5.9375 14.849 6 14.6719 6ZM15.3281 0.671875C15.3281 0.484375 15.2604 0.328125 15.125 0.203125C15 0.0677083 14.849 0 14.6719 0H1.32812C1.15104 0 0.994792 0.0677083 0.859375 0.203125C0.734375 0.328125 0.671875 0.484375 0.671875 0.671875C0.671875 0.848958 0.734375 1.00521 0.859375 1.14062C0.994792 1.26562 1.15104 1.32812 1.32812 1.32812H14.6719C14.849 1.32812 15 1.26562 15.125 1.14062C15.2604 1.00521 15.3281 0.848958 15.3281 0.671875ZM15.3281 10C15.3281 9.8125 15.2604 9.65625 15.125 9.53125C15 9.39583 14.849 9.32812 14.6719 9.32812H1.32812C1.15104 9.32812 0.994792 9.39583 0.859375 9.53125C0.734375 9.65625 0.671875 9.8125 0.671875 10C0.671875 10.1875 0.734375 10.349 0.859375 10.4844C0.994792 10.6094 1.15104 10.6719 1.32812 10.6719H14.6719C14.849 10.6719 15 10.6094 15.125 10.4844C15.2604 10.349 15.3281 10.1875 15.3281 10Z" fill="#56606D"/>
</svg>
